Simulation
nRows=15
nColumns=15
endheader
time  TH_x TH_y TH_z SC_y  SC_z  SC_x  AC_y  AC_z  AC_x  GH_y  GH_z  GH_yy  EL_x  PS_y
2.4010000000000002  0.000000  0.000000  0.000000  -35.43185660310884  9.915323688287154  13.75285835863235  49.30009524270729  0.9593561007214312  -6.3323146826425765  2.8340279359897522  22.209516024770263  13.429369164638135  11.278348769090584  120.000000
2.4490200000000004  0.000000  0.000000  0.000000  -33.72000243984374  8.983106338484625  12.286140388112615  49.078757442256034  0.9878711281184535  -6.607657659600576  3.7296778751725506  18.716371197596306  16.76338860375813  11.589035505586452  120.000000
2.49704  0.000000  0.000000  0.000000  -32.05537074176728  8.119250120147393  10.917551600611228  48.91169399030029  1.0962080553920919  -6.744694591510899  4.322705937545627  15.579841274176813  20.624146130975298  12.137014269319765  120.000000
2.5450600000000003  0.000000  0.000000  0.000000  -30.518739369157494  7.35295661653383  9.680988050574793  48.819149478828884  1.2968712848480417  -6.742473752571974  4.794368746753399  12.817556612299112  24.63494259283271  12.933909497322746  120.000000
2.5930800000000005  0.000000  0.000000  0.000000  -29.191932883234205  6.709359831060571  8.60185063178548  48.80795672785746  1.6016407956730032  -6.6116060793660445  5.657058378583135  10.420321123307712  28.087330760959524  13.917852972910257  120.000000
2.6411000000000002  0.000000  0.000000  0.000000  -28.147386047880794  6.2084052556712015  7.694246278264877  48.86774372787187  2.01702815770097  -6.376220573756699  7.899625076710297  8.364705470948671  29.81492942481273  14.984402069246924  120.000000
2.6891200000000004  0.000000  0.000000  0.000000  -27.43493506440213  5.860330547406319  6.958660493814008  48.9684945524511  2.5395539412138097  -6.0702721075754855  13.104283281253224  6.645504377668229  28.097630896155426  16.021769982872627  120.000000
2.7371400000000006  0.000000  0.000000  0.000000  -27.064269883657268  5.66199753876022  6.381526746404273  49.068120366931474  3.153472709075411  -5.7311199035367615  23.33904047345798  5.327859349582898  20.788457374772545  16.93736287136445  120.000000
2.7851600000000003  0.000000  0.000000  0.000000  -26.99554880882617  5.596984474580034  5.937980182159215  49.12885564520625  3.8321353382570056  -5.392365150924427  39.66393161204272  4.576886453007516  6.816287748430707  17.67086810747523  120.000000
2.8331800000000005  0.000000  0.000000  0.000000  -27.148269106547115  5.636856003396819  5.597528634651744  49.123741319336006  4.5423701009682524  -5.076045232178893  58.51473914268464  4.528517380232632  -10.20710925779373  18.191649953429085  120.000000
2.8812000000000006  0.000000  0.000000  0.000000  -27.424896893133187  5.749116028794514  5.320309089139695  49.042732860216894  5.256633456393514  -4.787957263190601  73.57763412545786  5.052611073571662  -23.885446751444707  18.490900434082427  120.000000
2.9292200000000004  0.000000  0.000000  0.000000  -27.73615698000699  5.903271970212085  5.063054592472847  48.89097069837691  5.9526626979402355  -4.523157807144491  82.84801861072543  5.8490277652241325  -32.12158419878285  18.577493837740057  120.000000
2.9772400000000006  0.000000  0.000000  0.000000  -28.01569476219188  6.071689158547299  4.788378333555631  48.68088070794795  6.608469696029157  -4.274433651909046  87.65825204170983  6.692502039895902  -36.162279252485966  18.4789449865689  120.000000
3.0252600000000003  0.000000  0.000000  0.000000  -28.22174982423392  6.228736313937391  4.469104756234122  48.434234007675165  7.198146793860138  -4.036374898169319  89.55888965690849  7.490851580297435  -37.48829605208023  18.245147906800554  120.000000
3.0732800000000005  0.000000  0.000000  0.000000  -28.32574330874645  6.35033508311772  4.091190153000287  48.1801833784455  7.689557297414819  -3.8062703652134307  89.60129919957296  8.240978152320565  -37.097705754418314  17.943362111988296  120.000000
